<svg width="210" height="36" viewBox="0 0 210 36" fill="none" xmlns="http://www.w3.org/2000/svg">
<g clip-path="url(#clip0_39_1953)">
<path d="M45.4999 0C55.4413 0 63.4999 8.0586 63.4999 18V30.6C63.4999 32.0322 62.931 33.4057 61.9183 34.4184C60.9056 35.4311 59.5321 36 58.0999 36H46.3999V28.1034C46.3999 26.3016 46.5097 24.435 47.4547 22.9014C48.1312 21.8023 49.0363 20.8617 50.1084 20.1432C51.1805 19.4246 52.3946 18.9451 53.6683 18.7371L54.013 18.6813C54.1551 18.6327 54.2785 18.5409 54.3658 18.4188C54.4531 18.2966 54.5001 18.1502 54.5001 18C54.5001 17.8498 54.4531 17.7034 54.3658 17.5812C54.2785 17.4591 54.1551 17.3673 54.013 17.3187L53.6683 17.2629C51.8072 16.9589 50.0887 16.078 48.7553 14.7446C47.4219 13.4112 46.541 11.6926 46.237 9.8316L46.1812 9.4869C46.1326 9.34479 46.0408 9.22143 45.9186 9.13408C45.7965 9.04673 45.6501 8.99977 45.4999 8.99977C45.3497 8.99977 45.2033 9.04673 45.0811 9.13408C44.959 9.22143 44.8672 9.34479 44.8186 9.4869L44.7628 9.8316C44.5548 11.1053 44.0753 12.3195 43.3568 13.3916C42.6383 14.4637 41.6976 15.3687 40.5985 16.0452C39.0649 16.9902 37.1983 17.1 35.3965 17.1H27.5215C27.9922 7.5771 35.8609 0 45.4999 0Z" fill="black"/>
<path d="M27.5 18.9H35.3966C37.1984 18.9 39.065 19.0098 40.5986 19.9548C41.7974 20.6935 42.8065 21.7026 43.5452 22.9014C44.4902 24.435 44.6 26.3016 44.6 28.1034V36H32.9C31.4678 36 30.0943 35.4311 29.0816 34.4184C28.0689 33.4057 27.5 32.0322 27.5 30.6V18.9ZM63.5 1.8C63.5 2.27739 63.3104 2.73523 62.9728 3.07279C62.6352 3.41036 62.1774 3.6 61.7 3.6C61.2226 3.6 60.7648 3.41036 60.4272 3.07279C60.0896 2.73523 59.9 2.27739 59.9 1.8C59.9 1.32261 60.0896 0.864773 60.4272 0.527208C60.7648 0.189642 61.2226 0 61.7 0C62.1774 0 62.6352 0.189642 62.9728 0.527208C63.3104 0.864773 63.5 1.32261 63.5 1.8Z" fill="#2B82FE"/>
</g>
<path d="M85.6239 15.54C85.3972 15.1667 85.0839 14.88 84.6839 14.68C84.2972 14.48 83.8372 14.38 83.3039 14.38C82.3172 14.38 81.5372 14.7 80.9639 15.34C80.4039 15.98 80.1239 16.84 80.1239 17.92C80.1239 19.1333 80.4239 20.06 81.0239 20.7C81.6372 21.3267 82.5239 21.64 83.6839 21.64C85.0572 21.64 86.0372 21.02 86.6239 19.78H82.6839V16.96H90.0039V20.76C89.6972 21.5067 89.2439 22.2067 88.6439 22.86C88.0572 23.5133 87.3106 24.0533 86.4039 24.48C85.4972 24.8933 84.4639 25.1 83.3039 25.1C81.8906 25.1 80.6372 24.8 79.5439 24.2C78.4639 23.5867 77.6239 22.74 77.0239 21.66C76.4372 20.5667 76.1439 19.32 76.1439 17.92C76.1439 16.5333 76.4372 15.3 77.0239 14.22C77.6239 13.1267 78.4639 12.28 79.5439 11.68C80.6239 11.0667 81.8706 10.76 83.2839 10.76C85.0572 10.76 86.5239 11.1867 87.6839 12.04C88.8439 12.8933 89.5639 14.06 89.8439 15.54H85.6239ZM99.1406 13.68C100.421 13.68 101.434 14.1133 102.181 14.98C102.941 15.8333 103.321 16.9933 103.321 18.46V25H99.4006V18.98C99.4006 18.34 99.234 17.84 98.9006 17.48C98.5673 17.1067 98.1206 16.92 97.5606 16.92C96.974 16.92 96.514 17.1067 96.1806 17.48C95.8473 17.84 95.6806 18.34 95.6806 18.98V25H91.7606V10.2H95.6806V15.38C96.0273 14.8733 96.494 14.4667 97.0806 14.16C97.6806 13.84 98.3673 13.68 99.1406 13.68ZM104.832 19.38C104.832 18.22 105.038 17.2067 105.452 16.34C105.878 15.4733 106.452 14.8067 107.172 14.34C107.905 13.8733 108.718 13.64 109.612 13.64C110.385 13.64 111.052 13.7933 111.612 14.1C112.172 14.4067 112.605 14.82 112.912 15.34V13.78H116.832V25H112.912V23.44C112.605 23.96 112.165 24.3733 111.592 24.68C111.032 24.9867 110.372 25.14 109.612 25.14C108.718 25.14 107.905 24.9067 107.172 24.44C106.452 23.9733 105.878 23.3067 105.452 22.44C105.038 21.56 104.832 20.54 104.832 19.38ZM112.912 19.38C112.912 18.66 112.712 18.0933 112.312 17.68C111.925 17.2667 111.445 17.06 110.872 17.06C110.285 17.06 109.798 17.2667 109.412 17.68C109.025 18.08 108.832 18.6467 108.832 19.38C108.832 20.1 109.025 20.6733 109.412 21.1C109.798 21.5133 110.285 21.72 110.872 21.72C111.445 21.72 111.925 21.5133 112.312 21.1C112.712 20.6867 112.912 20.1133 112.912 19.38ZM122.985 10.2V25H119.065V10.2H122.985ZM129.138 22H133.518V25H125.218V10.9H129.138V22ZM145.762 19.26C145.762 19.5667 145.742 19.8733 145.702 20.18H138.282C138.322 20.7933 138.489 21.2533 138.782 21.56C139.089 21.8533 139.475 22 139.942 22C140.595 22 141.062 21.7067 141.342 21.12H145.522C145.349 21.8933 145.009 22.5867 144.502 23.2C144.009 23.8 143.382 24.2733 142.622 24.62C141.862 24.9667 141.022 25.14 140.102 25.14C138.995 25.14 138.009 24.9067 137.142 24.44C136.289 23.9733 135.615 23.3067 135.122 22.44C134.642 21.5733 134.402 20.5533 134.402 19.38C134.402 18.2067 134.642 17.1933 135.122 16.34C135.602 15.4733 136.269 14.8067 137.122 14.34C137.989 13.8733 138.982 13.64 140.102 13.64C141.209 13.64 142.189 13.8667 143.042 14.32C143.895 14.7733 144.562 15.4267 145.042 16.28C145.522 17.12 145.762 18.1133 145.762 19.26ZM141.762 18.28C141.762 17.8 141.602 17.4267 141.282 17.16C140.962 16.88 140.562 16.74 140.082 16.74C139.602 16.74 139.209 16.8733 138.902 17.14C138.595 17.3933 138.395 17.7733 138.302 18.28H141.762ZM146.726 19.38C146.726 18.22 146.933 17.2067 147.346 16.34C147.773 15.4733 148.346 14.8067 149.066 14.34C149.799 13.8733 150.613 13.64 151.506 13.64C152.279 13.64 152.946 13.7933 153.506 14.1C154.066 14.4067 154.499 14.82 154.806 15.34V13.78H158.726V25H154.806V23.44C154.499 23.96 154.059 24.3733 153.486 24.68C152.926 24.9867 152.266 25.14 151.506 25.14C150.613 25.14 149.799 24.9067 149.066 24.44C148.346 23.9733 147.773 23.3067 147.346 22.44C146.933 21.56 146.726 20.54 146.726 19.38ZM154.806 19.38C154.806 18.66 154.606 18.0933 154.206 17.68C153.819 17.2667 153.339 17.06 152.766 17.06C152.179 17.06 151.693 17.2667 151.306 17.68C150.919 18.08 150.726 18.6467 150.726 19.38C150.726 20.1 150.919 20.6733 151.306 21.1C151.693 21.5133 152.179 21.72 152.766 21.72C153.339 21.72 153.819 21.5133 154.206 21.1C154.606 20.6867 154.806 20.1133 154.806 19.38ZM164.88 15.76C165.32 15.12 165.853 14.6133 166.48 14.24C167.107 13.8667 167.78 13.68 168.5 13.68V17.86H167.4C166.547 17.86 165.913 18.0267 165.5 18.36C165.087 18.6933 164.88 19.2733 164.88 20.1V25H160.96V13.78H164.88V15.76ZM177.245 13.68C178.538 13.68 179.565 14.1133 180.325 14.98C181.085 15.8333 181.465 16.9933 181.465 18.46V25H177.545V18.98C177.545 18.34 177.378 17.84 177.045 17.48C176.712 17.1067 176.265 16.92 175.705 16.92C175.118 16.92 174.658 17.1067 174.325 17.48C173.992 17.84 173.825 18.34 173.825 18.98V25H169.905V13.78H173.825V15.38C174.172 14.8733 174.638 14.4667 175.225 14.16C175.812 13.84 176.485 13.68 177.245 13.68Z" fill="#0A090B"/>
<defs>
<clipPath id="clip0_39_1953">
<rect width="36" height="36" fill="white" transform="translate(27.5)"/>
</clipPath>
</defs>
</svg>
